# xmcd
#
# Track frame offsets:
#	150
#	16350
#	29175
#	43325
#	57976
#	70045
#	81745
#	93739
#	104712
#	114829
#
# Disc length: 1745 seconds
#
# Revision: 1
# Processed by: cddbd v1.5.2PL0 Copyright (c) Steve Scherf et al.
# Submitted via: audiograbber 1.83.01
#
DISCID=9306cf0a
DTITLE=Joan Brennan - A Little Bit Country
DYEAR=2010
DGENRE=Country
TTITLE0=Checking Out Of This Heartbreak Hotel
TTITLE1=Standing Room Only
TTITLE2=I Feel Lucky
TTITLE3=If Tomorrow Never Comes
TTITLE4=Could I Have This Dance
TTITLE5=Downtown
TTITLE6=Save The Last Dance For Me
TTITLE7=Son Of A Preacherman
TTITLE8=Walking After Midnight
TTITLE9=Pearls A Singer
EXTD=
EXTT0=
EXTT1=
EXTT2=
EXTT3=
EXTT4=
EXTT5=
EXTT6=
EXTT7=
EXTT8=
EXTT9=
PLAYORDER=
